<?xml version="1.0" standalone="no"?>
<!DOCTYPE svg PUBLIC "-//W3C//DTD SVG 20010904//EN"
 "http://www.w3.org/TR/2001/REC-SVG-20010904/DTD/svg10.dtd">
<svg version="1.0" xmlns="http://www.w3.org/2000/svg"
 width="1280.000000pt" height="898.000000pt" viewBox="0 0 1280.000000 898.000000"
 preserveAspectRatio="xMidYMid meet">
<metadata>
Created by potrace 1.15, written by Peter Selinger 2001-2017
</metadata>
<g transform="translate(0.000000,898.000000) scale(0.100000,-0.100000)"
fill="#000000" stroke="none">
<path d="M8795 8970 c-77 -13 -162 -38 -170 -50 -4 -6 -57 -10 -122 -10 l-116
0 -47 -47 c-36 -36 -49 -58 -54 -89 -5 -27 -18 -52 -37 -70 -16 -15 -29 -34
-29 -42 0 -7 -20 -61 -45 -119 -36 -84 -45 -116 -45 -164 0 -50 4 -63 29 -91
26 -30 29 -41 34 -128 3 -52 10 -115 16 -140 5 -25 10 -131 11 -235 0 -222 10
-273 73 -384 49 -86 159 -209 220 -244 23 -14 62 -31 87 -38 54 -15 70 -26 64
-43 -10 -27 36 -65 106 -87 55 -18 67 -25 58 -36 -8 -9 -7 -13 1 -13 7 0 -5
-19 -25 -43 l-38 -43 -38 13 c-45 15 -80 9 -187 -32 -69 -26 -76 -33 -73 -75
1 -9 -8 -21 -18 -28 -17 -10 -20 -10 -20 3 0 27 -19 16 -83 -47 -68 -69 -107
-138 -114 -202 -6 -49 -22 -71 -84 -114 -27 -18 -51 -44 -57 -61 -7 -18 -46
-57 -109 -107 -54 -44 -144 -118 -200 -166 -73 -62 -115 -90 -145 -98 -78 -20
-192 -69 -313 -136 -220 -122 -341 -183 -406 -208 l-65 -24 -19 28 c-29 43
-86 70 -182 86 -114 18 -175 39 -203 69 -16 17 -34 25 -57 25 -45 0 -69 -14
-89 -52 -20 -38 -13 -83 20 -127 l24 -33 -38 -34 c-20 -19 -42 -34 -47 -34
-15 0 -83 -76 -130 -146 -23 -34 -89 -155 -146 -270 -216 -435 -210 -428 -657
-763 -195 -146 -496 -364 -668 -485 -201 -141 -311 -223 -308 -232 6 -15 -62
-60 -82 -56 -7 2 -41 -21 -75 -51 -130 -113 -430 -326 -842 -599 -367 -243
-368 -244 -361 -272 4 -17 -4 -32 -36 -62 -23 -22 -38 -31 -35 -21 11 31 -21
31 -61 1 -20 -16 -84 -71 -142 -124 -153 -139 -183 -162 -305 -227 -60 -33
-146 -80 -190 -105 -84 -48 -156 -81 -162 -75 -2 2 15 12 38 22 22 10 49 29
59 42 10 13 22 23 28 23 21 0 62 43 62 64 0 18 -7 25 -32 30 l-33 7 38 31 c42
34 77 94 77 133 0 32 -9 32 -38 -2 l-24 -28 21 37 20 38 -52 -26 -52 -26 27
24 c35 33 68 100 68 136 0 29 -33 82 -51 82 -5 0 -9 -7 -9 -15 0 -8 -6 -16
-12 -17 -7 0 -18 -2 -24 -2 -6 -1 -30 -18 -52 -38 -47 -42 -101 -72 -151 -83
l-33 -7 18 31 c10 17 23 31 29 31 14 0 58 47 74 77 15 29 14 63 -1 63 -7 0
-22 7 -32 15 -18 13 -18 16 -4 32 9 10 19 40 23 66 7 44 5 51 -21 78 -47 49
-134 48 -134 -2 0 -10 -11 -38 -25 -60 -14 -22 -30 -50 -34 -63 -9 -23 -82
-53 -101 -41 -6 4 -39 0 -73 -9 -34 -8 -100 -17 -147 -21 -199 -14 -287 -49
-311 -123 -25 -79 -70 -102 -194 -102 -61 0 -100 -5 -133 -19 -26 -10 -68 -26
-95 -36 -46 -16 -70 -41 -65 -67 2 -7 -4 -13 -12 -13 -8 -1 -34 -13 -56 -29
-23 -15 -82 -42 -130 -60 -49 -18 -107 -43 -128 -54 -41 -22 -88 -34 -212 -52
-39 -6 -85 -20 -102 -31 -83 -50 -92 -149 -21 -226 25 -28 39 -52 39 -70 0
-85 141 -243 217 -243 35 0 55 -42 61 -124 4 -68 6 -74 34 -91 41 -24 111 -16
212 25 l79 31 76 -35 c70 -31 118 -41 195 -37 10 1 42 26 71 57 43 47 56 56
76 51 45 -12 54 -23 41 -49 -6 -13 -16 -43 -21 -68 -6 -25 -20 -72 -31 -105
-11 -33 -23 -86 -27 -118 -4 -42 -11 -61 -24 -68 -15 -7 -213 -7 -291 0 -5 1
-8 7 -8 14 0 22 -46 37 -113 37 -50 0 -73 -6 -117 -30 -30 -16 -67 -35 -82
-42 -16 -7 -28 -20 -28 -30 0 -9 -8 -33 -17 -52 -14 -29 -14 -42 -5 -73 16
-54 68 -113 98 -113 13 0 24 5 24 10 0 20 20 9 35 -20 11 -22 13 -35 6 -49 -7
-12 -6 -22 1 -29 8 -8 8 -15 -2 -27 -10 -12 -15 -13 -21 -4 -19 32 -70 -105
-58 -158 16 -71 95 -135 138 -113 9 5 25 1 40 -8 49 -33 124 -22 247 35 127
60 171 70 242 54 58 -12 79 -7 87 20 8 26 15 24 74 -15 97 -66 347 -186 386
-186 20 0 65 14 101 31 54 26 71 30 102 24 56 -12 101 -8 128 10 38 25 29 34
-38 37 -47 2 -64 7 -66 18 -2 13 12 15 80 15 66 0 92 4 124 21 39 21 43 21
100 7 48 -13 74 -14 140 -5 109 14 235 64 281 110 30 30 46 37 96 44 32 4 79
17 104 28 40 17 44 23 39 44 -5 22 -1 26 49 45 117 44 178 82 168 107 -3 8 1
14 10 14 8 0 55 32 103 70 104 83 169 110 259 110 47 0 64 4 67 14 3 15 151
-104 169 -137 16 -28 3 -20 -63 39 -34 31 -64 51 -66 44 -7 -20 82 -123 151
-175 147 -111 358 -160 657 -154 74 2 141 0 148 -4 17 -12 50 1 62 23 9 16 18
19 54 14 34 -5 59 0 111 21 37 14 70 24 73 20 4 -4 32 -43 63 -88 100 -147
176 -192 349 -204 89 -6 134 7 125 36 -4 15 5 23 49 41 31 12 65 31 77 41 21
18 21 20 5 62 -9 23 -16 52 -16 63 0 11 -7 30 -16 43 -10 13 -18 39 -20 57 -2
30 2 36 37 56 43 24 79 72 79 106 0 23 -54 113 -92 154 -15 16 -37 28 -51 28
-39 0 -81 42 -141 143 -41 68 -52 93 -41 95 36 8 1 118 -62 192 -32 39 -95 69
-141 70 -44 0 -102 -25 -102 -44 0 -17 -35 -22 -45 -7 -3 6 -37 -3 -78 -20
-39 -17 -91 -33 -114 -36 -105 -14 -193 28 -193 93 0 34 1 35 131 99 185 92
259 151 259 207 0 7 24 32 54 55 100 77 174 191 191 293 5 29 26 74 60 125 59
89 85 156 85 216 0 36 -3 40 -30 46 -35 6 -35 7 -16 36 20 31 63 163 71 220 5
40 4 48 -12 54 -30 11 -32 23 -26 123 7 139 -21 192 -109 206 -20 4 -39 13
-42 20 -3 8 -12 11 -22 7 -12 -4 -14 -14 -9 -42 18 -102 17 -116 -15 -214 -42
-132 -80 -213 -143 -311 -56 -85 -172 -219 -193 -222 -6 -1 -37 -22 -68 -48
-169 -137 -342 -210 -531 -222 -85 -6 -114 -3 -250 27 -27 6 -95 11 -150 11
-166 1 -324 -47 -515 -155 -122 -70 -280 -174 -280 -185 0 -16 -88 -53 -112
-47 -14 4 -66 -1 -117 -10 -135 -23 -287 -21 -386 5 -44 12 -82 23 -84 25 -2
3 11 12 29 22 58 32 254 164 303 205 26 22 47 48 47 59 0 10 3 20 8 20 4 1 17
3 29 4 12 1 45 22 75 47 96 81 209 162 482 347 148 101 297 204 331 230 108
82 195 156 195 166 0 14 67 59 90 60 31 2 169 94 380 254 398 302 490 369 975
715 675 481 787 566 781 591 -4 15 5 27 34 48 22 15 45 27 52 26 7 -1 47 14
88 34 41 19 118 47 170 62 52 15 108 36 124 47 15 11 42 21 60 22 43 2 121 49
184 113 56 56 112 161 112 210 0 21 3 24 12 15 23 -23 54 -12 113 38 62 52 70
56 80 40 9 -15 45 -12 158 11 236 48 475 151 641 277 131 99 161 118 219 137
82 27 176 80 265 150 74 58 87 65 127 65 53 0 107 24 99 44 -7 18 45 38 90 35
19 -2 38 0 42 4 4 4 16 7 26 7 12 0 18 7 18 22 0 38 10 13 20 -50 16 -94 57
-227 96 -308 l36 -73 -4 -253 c-4 -231 -8 -274 -42 -488 -41 -264 -66 -364
-124 -497 -74 -170 -158 -294 -350 -513 -41 -47 -80 -98 -87 -115 -7 -16 -27
-40 -44 -53 -33 -24 -61 -98 -61 -159 0 -43 29 -99 74 -142 27 -26 38 -32 48
-23 8 6 18 8 24 4 21 -13 9 -78 -23 -128 -63 -98 -79 -230 -43 -368 25 -100
64 -170 118 -215 105 -87 125 -107 148 -153 17 -33 31 -48 44 -48 19 0 24 -12
22 -49 0 -8 10 -28 24 -44 13 -16 24 -35 24 -42 0 -8 13 -29 29 -47 15 -18 44
-64 64 -103 40 -79 93 -138 106 -117 6 10 11 10 21 -3 11 -13 10 -18 -5 -29
-18 -13 -13 -23 156 -291 20 -33 51 -88 68 -121 31 -61 58 -85 71 -63 6 8 9 8
15 -1 4 -7 2 -16 -5 -20 -14 -9 -2 -56 31 -122 12 -23 19 -58 19 -93 0 -30 4
-55 8 -55 5 0 8 -22 8 -50 -1 -56 -8 -61 -32 -25 -19 29 -49 32 -76 8 -17 -15
-23 -15 -51 -4 -18 8 -47 16 -65 18 -61 10 -88 98 -37 121 51 24 76 15 131
-43 29 -30 55 -55 58 -55 3 0 6 11 6 25 0 17 -17 43 -53 80 -46 47 -58 55 -91
55 -72 0 -126 -44 -126 -104 0 -82 63 -137 156 -140 l42 -1 -14 -27 c-22 -42
-81 -84 -201 -143 -62 -30 -113 -59 -113 -65 0 -5 -7 -10 -15 -10 -25 0 -105
-87 -128 -138 -13 -30 -21 -70 -22 -112 0 -36 -6 -74 -12 -86 -33 -58 32 -147
131 -180 73 -25 232 -21 333 6 61 17 84 19 106 11 32 -12 34 -22 7 -46 -11
-10 -17 -22 -14 -27 7 -11 64 0 84 17 8 6 65 20 125 29 61 10 217 40 348 67
131 27 240 49 243 49 2 0 4 -8 4 -18 0 -10 6 -27 14 -37 13 -18 18 -18 187 9
162 26 176 26 204 12 35 -19 204 -21 324 -6 61 8 77 7 91 -5 12 -11 56 -16
175 -20 136 -5 163 -4 180 10 18 14 18 16 2 33 -14 13 -32 16 -82 14 -45 -2
-75 3 -96 14 -41 21 -101 22 -230 5 l-105 -14 -33 24 c-42 31 -155 38 -250 16
-62 -14 -66 -14 -92 5 -38 28 -108 33 -209 14 -47 -8 -134 -20 -194 -26 -96
-10 -198 -28 -261 -47 -17 -5 -18 -3 -8 9 29 34 -20 37 -126 7 -41 -11 -90
-19 -109 -17 l-35 3 62 43 c34 24 69 55 77 68 14 20 24 24 68 24 29 0 80 9
113 20 33 11 84 25 112 31 52 11 111 50 111 74 0 7 22 18 51 25 84 20 130 70
170 187 18 52 18 54 -2 99 -10 26 -28 59 -39 74 -12 17 -20 44 -20 67 0 100
-59 193 -149 236 -78 37 -129 102 -180 232 -13 33 -48 110 -77 170 -28 61 -74
173 -102 251 -63 176 -102 263 -147 326 -27 37 -33 53 -25 63 8 9 -5 40 -50
121 -67 120 -88 147 -131 165 -43 17 -46 5 -8 -43 l32 -43 -50 48 c-32 31 -53
45 -58 38 -10 -18 -27 -1 -21 22 3 14 -5 34 -28 61 -50 63 -61 87 -45 100 15
12 14 41 -2 93 -8 24 -6 48 6 95 20 80 80 208 97 208 7 0 61 -16 120 -35 144
-45 270 -72 411 -86 131 -12 202 -6 216 19 8 14 17 15 77 4 139 -24 206 -52
171 -74 -16 -9 25 -172 61 -243 34 -69 129 -160 203 -195 80 -37 183 -54 284
-46 135 10 152 16 203 61 41 37 58 44 139 62 55 12 94 16 96 10 2 -6 45 -2
107 11 58 11 183 32 277 47 95 14 202 32 237 39 53 12 75 12 127 1 42 -9 71
-10 87 -4 14 5 26 8 28 6 2 -1 -11 -24 -28 -50 -40 -61 -50 -138 -22 -168 49
-54 90 -40 155 50 38 54 39 54 39 23 0 -23 10 -39 45 -70 24 -21 59 -43 77
-48 25 -7 34 -17 41 -44 10 -41 -8 -181 -29 -222 -8 -15 -14 -36 -14 -46 0
-27 55 -144 76 -164 28 -24 158 -59 221 -59 77 0 147 36 220 114 49 53 65 80
103 177 47 119 49 138 35 263 -7 64 -7 67 14 67 20 0 21 4 21 128 0 165 -14
284 -45 378 -14 42 -25 93 -25 113 0 36 -28 88 -74 139 -35 39 -91 62 -178 72
-46 5 -109 15 -141 21 -71 14 -108 2 -213 -67 -97 -65 -133 -77 -313 -105 -73
-11 -85 -11 -95 2 -9 13 -55 18 -226 28 -249 14 -410 30 -410 42 0 12 55 39
79 39 23 0 94 58 86 70 -3 5 27 26 67 47 199 104 531 527 643 817 41 109 66
211 54 223 -5 5 -5 23 1 42 12 42 6 51 -28 51 -16 0 -32 8 -40 20 -9 15 -23
20 -60 20 -70 0 -217 33 -307 69 -250 100 -465 295 -660 599 -37 57 -65 79
-65 50 0 -6 16 -41 35 -77 20 -36 28 -57 19 -46 -24 30 -75 134 -72 148 1 7
-21 59 -50 117 -57 118 -111 294 -117 387 -4 62 -25 122 -50 143 -14 12 -41
15 -65 9 -11 -3 -13 5 -11 35 5 64 16 83 58 96 21 7 57 23 80 36 61 35 173
133 173 150 0 12 7 14 30 9 21 -5 32 -3 36 8 3 8 14 12 27 10 12 -2 49 7 82
21 l60 25 38 -37 c101 -98 222 -306 282 -485 l34 -101 -28 -31 c-15 -18 -33
-52 -39 -76 -17 -67 -46 -105 -107 -144 -30 -20 -55 -39 -55 -44 0 -4 -14 -12
-31 -17 -42 -12 -56 -35 -43 -71 21 -60 106 -88 192 -64 l32 10 0 -72 c0 -92
13 -136 49 -171 24 -23 35 -27 59 -21 27 6 33 3 47 -25 14 -27 48 -50 76 -50
5 0 27 16 49 36 28 26 45 34 59 29 14 -4 30 3 56 27 28 27 38 47 51 103 24
104 23 102 40 69 21 -42 52 -64 89 -64 42 0 58 21 58 76 0 35 -8 56 -38 99
l-38 55 12 57 c6 31 11 75 11 99 0 53 -30 152 -58 192 -30 42 -39 67 -57 178
-17 97 -33 142 -62 176 -8 9 -16 31 -18 50 -4 46 -27 106 -86 223 -97 192
-275 432 -316 428 -29 -3 -49 22 -33 42 16 19 8 30 -48 62 -42 25 -56 28 -137
27 -69 0 -109 -7 -169 -27 l-80 -26 -33 30 c-40 34 -73 39 -73 9 0 -13 -7 -20
-20 -20 -22 0 -61 65 -53 88 7 18 -41 67 -82 87 -18 8 -51 15 -73 15 -23 0
-44 5 -47 10 -3 6 -24 10 -45 10 -21 0 -42 5 -45 10 -10 16 -41 12 -102 -16
-51 -23 -66 -25 -127 -19 -66 6 -71 5 -152 -36 -60 -30 -99 -57 -134 -95 -26
-30 -51 -54 -54 -54 -3 0 -6 9 -6 19 0 19 -25 35 -40 26 -11 -7 -91 25 -86 34
3 4 -5 25 -18 46 -21 39 -23 40 -76 40 -81 1 -127 25 -140 76 -6 23 -8 60 -5
83 7 41 43 136 52 136 3 0 30 -22 60 -50 106 -97 248 -143 499 -160 142 -10
159 -10 265 12 151 30 419 32 549 4 213 -46 382 -133 529 -272 38 -35 71 -64
75 -64 11 0 6 51 -8 78 -20 39 -59 72 -156 134 -134 86 -134 85 32 91 152 5
231 24 299 70 61 41 42 49 -30 12 -60 -30 -88 -37 -170 -45 -97 -9 -221 -1
-286 18 -17 5 -51 20 -75 33 l-45 23 163 12 c171 13 287 33 378 64 89 31 194
109 194 144 0 5 -12 -2 -28 -17 -39 -37 -162 -92 -278 -123 -127 -34 -350 -44
-459 -21 -83 18 -173 51 -201 73 -18 14 -14 15 51 10 39 -2 90 -12 115 -22 31
-12 87 -18 185 -22 156 -5 263 7 393 44 133 39 200 82 76 49 -75 -20 -239 -20
-330 -2 -60 13 -214 56 -214 60 0 1 105 2 232 2 191 0 244 3 297 18 88 24 205
87 210 112 3 20 3 20 -18 0 -19 -16 -24 -17 -31 -5 -7 11 -17 9 -57 -12 -98
-54 -178 -73 -303 -73 -86 0 -128 5 -167 18 -29 10 -55 22 -58 27 -10 15 67
30 242 45 291 26 307 29 321 60 14 29 14 29 -31 10 -39 -16 -137 -21 -137 -6
0 13 38 35 122 70 93 39 141 84 54 51 -36 -13 -39 1 -11 40 15 20 25 48 25 67
0 32 -1 33 -45 33 -74 0 -61 19 81 111 41 27 74 51 74 55 0 3 -13 3 -30 -1
-19 -4 -30 -3 -30 4 0 6 -21 -6 -47 -26 -90 -69 -226 -114 -338 -112 -114 2
-106 14 35 48 129 32 280 92 280 111 0 5 -24 -2 -52 -15 -51 -23 -204 -56
-257 -54 -24 0 -24 1 -8 12 10 7 69 47 130 90 62 43 141 95 177 115 36 19 67
37 69 38 2 2 -2 17 -9 33 l-12 31 -44 -42 c-25 -24 -52 -47 -62 -52 -15 -9
-15 -6 2 19 10 15 34 48 52 72 32 42 43 73 27 73 -5 0 -19 -16 -32 -35 -36
-54 -146 -152 -199 -179 -67 -34 -140 -52 -267 -66 -81 -9 -117 -9 -139 -1
-16 7 -27 13 -25 15 2 2 78 23 169 46 187 49 221 61 306 116 93 61 154 118
154 145 0 5 -44 -22 -97 -60 -157 -110 -272 -161 -363 -161 -30 0 -16 10 100
68 75 37 169 89 209 116 114 76 261 234 261 280 0 30 -30 4 -140 -119 l-109
-123 -147 -71 c-187 -91 -254 -113 -330 -109 -42 2 -53 6 -39 11 11 5 62 25
114 45 206 80 411 233 411 307 0 27 -19 16 -86 -51 -185 -182 -367 -255 -644
-258 -98 -1 -120 2 -145 18 -34 23 -43 17 110 66 55 18 137 51 182 73 103 51
227 145 231 175 5 30 -19 28 -49 -4 -73 -79 -275 -189 -412 -223 -159 -41
-285 -49 -482 -31 -287 27 -292 30 -635 269 -122 85 -191 106 -350 105 -69 0
-141 -5 -160 -10 -20 -6 -50 -7 -70 -2 -57 13 -250 18 -315 8z m-562 -880 c4
-36 3 -48 -3 -35 -8 19 -14 103 -6 94 2 -2 6 -29 9 -59z m1262 -100 c8 -13 -5
-13 -25 0 -13 8 -13 10 2 10 9 0 20 -4 23 -10z m45 -336 c-8 -8 -23 -20 -34
-26 -19 -10 -18 -8 3 16 26 27 53 37 31 10z m-137 -622 c-5 -21 -43 -48 -43
-31 0 8 37 47 47 49 0 0 -1 -8 -4 -18z m354 -219 c-3 -10 -5 -4 -5 12 0 17 2
24 5 18 2 -7 2 -21 0 -30z m-280 -240 c-3 -10 -5 -2 -5 17 0 19 2 27 5 18 2
-10 2 -26 0 -35z m1745 -120 c43 -63 28 -52 -27 20 -27 34 -39 53 -26 42 13
-11 37 -39 53 -62z m-1317 -333 c10 -11 16 -20 13 -20 -3 0 -13 9 -23 20 -10
11 -16 20 -13 20 3 0 13 -9 23 -20z m238 -173 c43 -19 80 -37 85 -41 12 -12
-127 42 -151 59 -32 22 -19 19 66 -18z m337 -2 c0 -8 -4 -15 -10 -15 -5 0 -7
7 -4 15 4 8 8 15 10 15 2 0 4 -7 4 -15z m-4180 -613 c0 -5 -9 -17 -20 -27 -22
-20 -26 -14 -10 16 11 19 30 26 30 11z m48 -105 c12 -11 22 -31 22 -44 0 -30
38 -69 93 -93 47 -22 79 -25 108 -10 30 17 22 5 -17 -25 -32 -25 -36 -26 -47
-10 -12 15 -15 15 -39 -4 -14 -12 -32 -21 -40 -21 -7 0 -42 -16 -78 -35 -150
-80 -197 -103 -227 -109 l-31 -7 60 133 c63 138 96 197 131 235 21 24 28 22
65 -10z m-773 -937 c-4 -6 -48 -38 -98 -72 -111 -73 -104 -62 13 21 89 64 95
68 85 51z m6580 -890 c-10 -11 -23 -20 -29 -20 -6 0 0 9 14 20 32 25 38 25 15
0z m-1205 -32 c-60 -37 -297 -142 -278 -123 3 3 57 30 120 59 62 29 127 60
143 69 44 24 56 21 15 -5z m1254 -300 c-20 -39 -28 -30 -19 23 7 39 9 41 21
25 11 -16 11 -23 -2 -48z m-1325 -157 c-2 -24 -15 -39 -28 -32 -18 11 -5 52
15 44 7 -3 14 -8 13 -12z m1238 -176 c82 -119 29 -95 -83 38 l-31 37 32 0 c28
0 37 -8 82 -75z m380 -481 c3 -8 -2 -23 -11 -32 -15 -15 -16 -14 -16 16 0 33
16 43 27 16z m-10550 -431 c-3 -10 -5 -4 -5 12 0 17 2 24 5 18 2 -7 2 -21 0
-30z m-208 -53 c-12 -22 -24 -38 -26 -36 -4 4 37 76 44 76 2 0 -6 -18 -18 -40z
m-726 -370 c-3 -11 -7 -20 -9 -20 -2 0 -4 9 -4 20 0 11 4 20 9 20 5 0 7 -9 4
-20z m-40 -51 c-6 -6 -33 -13 -60 -15 l-48 -3 50 13 c64 18 71 18 58 5z m3441
-45 c3 -8 2 -12 -4 -9 -6 3 -10 10 -10 16 0 14 7 11 14 -7z m663 -106 c34 -68
55 -126 51 -139 -2 -6 -22 32 -45 85 -41 96 -45 134 -6 54z m4844 -391 c-10
-9 -11 -8 -5 6 3 10 9 15 12 12 3 -3 0 -11 -7 -18z m-8998 -74 c-7 -2 -19 -2
-25 0 -7 3 -2 5 12 5 14 0 19 -2 13 -5z m7934 -245 c-3 -8 -6 -5 -6 6 -1 11 2
17 5 13 3 -3 4 -12 1 -19z m-6764 -59 c32 -8 36 -13 26 -25 -6 -8 -27 -14 -45
-14 -30 0 -34 3 -34 25 0 28 1 29 53 14z"/>
<path d="M1365 165 c-157 -29 -235 -32 -235 -10 0 25 -22 27 -133 11 -57 -9
-150 -16 -205 -16 -56 0 -103 -4 -106 -9 -14 -22 31 -36 130 -39 93 -3 103 -6
107 -24 6 -20 11 -20 89 -14 46 4 168 23 272 42 178 31 190 32 202 16 7 -9 14
-20 14 -24 0 -3 32 -12 72 -18 51 -9 131 -10 274 -5 137 5 204 3 208 -4 5 -7
103 -8 309 -4 298 5 303 5 367 -18 61 -22 77 -23 284 -21 151 2 223 -1 232 -9
23 -19 134 -22 209 -5 202 44 253 50 323 37 101 -19 107 -19 107 4 0 32 -55
46 -157 39 -48 -3 -241 -9 -430 -14 -328 -8 -344 -7 -359 10 -15 18 -40 19
-360 23 -218 3 -366 9 -404 16 -47 10 -102 10 -259 1 l-200 -12 -27 33 c-25
31 -29 33 -110 35 -57 2 -125 -4 -214 -21z"/>
</g>
</svg>
